<svg xmlns="http://www.w3.org/2000/svg" version="1.1" xmlns:xlink="http://www.w3.org/1999/xlink" xmlns:svgjs="http://svgjs.com/svgjs" width="1440" height="578" preserveAspectRatio="none" viewBox="0 0 1440 578"><g mask="url(&quot;#SvgjsMask1815&quot;)" fill="none"><rect width="1440" height="578" x="0" y="0" fill="url(#SvgjsLinearGradient1816)"></rect><g mask="url(&quot;#SvgjsMask1818&quot;)"><path d="M1387.5 262.5L1362.5 287.5L1337.5 287.5L1312.5 287.5L1287.5 287.5L1262.5 287.5L1237.5 287.5L1212.5 287.5M937.5 237.5L912.5 262.5L887.5 262.5M812.5 237.5L787.5 262.5L762.5 262.5L737.5 262.5M837.5 237.5L812.5 212.5L787.5 212.5L762.5 212.5L737.5 187.5L712.5 187.5L687.5 162.5M1237.5 262.5L1212.5 262.5L1187.5 262.5L1162.5 262.5M1112.5 237.5L1087.5 262.5L1062.5 262.5L1037.5 262.5L1012.5 262.5L987.5 262.5L962.5 262.5L937.5 262.5L912.5 287.5M887.5 237.5L862.5 212.5L837.5 212.5L812.5 187.5L787.5 187.5L762.5 187.5L737.5 162.5L712.5 137.5M1287.5 262.5L1262.5 237.5L1237.5 237.5M1462.5 287.5L1437.5 262.5L1412.5 262.5L1387.5 262.5L1362.5 262.5L1337.5 262.5L1312.5 262.5L1287.5 262.5L1262.5 262.5L1237.5 262.5L1212.5 237.5L1187.5 237.5L1162.5 237.5L1137.5 237.5L1112.5 237.5L1087.5 237.5L1062.5 237.5L1037.5 237.5L1012.5 237.5L987.5 237.5L962.5 237.5L937.5 237.5L912.5 237.5L887.5 237.5L862.5 237.5L837.5 237.5L812.5 237.5L787.5 237.5L762.5 237.5L737.5 237.5L712.5 237.5L687.5 237.5L662.5 237.5L637.5 237.5" stroke="url(#SvgjsLinearGradient1817)" stroke-width="4.17"></path><path d="M631.25 237.5 a6.25 6.25 0 1 0 12.5 0 a6.25 6.25 0 1 0 -12.5 0zM1206.25 287.5 a6.25 6.25 0 1 0 12.5 0 a6.25 6.25 0 1 0 -12.5 0zM881.25 262.5 a6.25 6.25 0 1 0 12.5 0 a6.25 6.25 0 1 0 -12.5 0zM731.25 262.5 a6.25 6.25 0 1 0 12.5 0 a6.25 6.25 0 1 0 -12.5 0zM681.25 162.5 a6.25 6.25 0 1 0 12.5 0 a6.25 6.25 0 1 0 -12.5 0zM1156.25 262.5 a6.25 6.25 0 1 0 12.5 0 a6.25 6.25 0 1 0 -12.5 0zM906.25 287.5 a6.25 6.25 0 1 0 12.5 0 a6.25 6.25 0 1 0 -12.5 0zM706.25 137.5 a6.25 6.25 0 1 0 12.5 0 a6.25 6.25 0 1 0 -12.5 0zM1231.25 237.5 a6.25 6.25 0 1 0 12.5 0 a6.25 6.25 0 1 0 -12.5 0z" fill="url(#SvgjsLinearGradient1817)"></path><path d="M887.5 337.5L862.5 312.5L837.5 312.5L812.5 312.5L787.5 312.5L762.5 312.5M937.5 337.5L912.5 312.5L887.5 312.5M837.5 337.5L812.5 362.5M1012.5 337.5L987.5 362.5M862.5 337.5L837.5 362.5L812.5 387.5M1237.5 312.5L1212.5 337.5L1187.5 337.5L1162.5 337.5M1462.5 312.5L1437.5 312.5L1412.5 312.5L1387.5 312.5L1362.5 312.5L1337.5 312.5L1312.5 312.5L1287.5 312.5L1262.5 312.5L1237.5 312.5L1212.5 312.5L1187.5 312.5L1162.5 312.5L1137.5 312.5L1112.5 312.5L1087.5 337.5L1062.5 337.5L1037.5 337.5L1012.5 337.5L987.5 337.5L962.5 337.5L937.5 337.5L912.5 337.5L887.5 337.5L862.5 337.5L837.5 337.5L812.5 337.5" stroke="url(#SvgjsLinearGradient1817)" stroke-width="4.17"></path><path d="M806.25 337.5 a6.25 6.25 0 1 0 12.5 0 a6.25 6.25 0 1 0 -12.5 0zM756.25 312.5 a6.25 6.25 0 1 0 12.5 0 a6.25 6.25 0 1 0 -12.5 0zM881.25 312.5 a6.25 6.25 0 1 0 12.5 0 a6.25 6.25 0 1 0 -12.5 0zM806.25 362.5 a6.25 6.25 0 1 0 12.5 0 a6.25 6.25 0 1 0 -12.5 0zM981.25 362.5 a6.25 6.25 0 1 0 12.5 0 a6.25 6.25 0 1 0 -12.5 0zM806.25 387.5 a6.25 6.25 0 1 0 12.5 0 a6.25 6.25 0 1 0 -12.5 0zM1156.25 337.5 a6.25 6.25 0 1 0 12.5 0 a6.25 6.25 0 1 0 -12.5 0z" fill="url(#SvgjsLinearGradient1817)"></path><path d="M1337.5 337.5L1312.5 362.5L1287.5 362.5M1462.5 337.5L1437.5 337.5L1412.5 337.5L1387.5 337.5L1362.5 337.5L1337.5 337.5L1312.5 337.5L1287.5 337.5" stroke="url(#SvgjsLinearGradient1817)" stroke-width="4.17"></path><path d="M1281.25 337.5 a6.25 6.25 0 1 0 12.5 0 a6.25 6.25 0 1 0 -12.5 0zM1281.25 362.5 a6.25 6.25 0 1 0 12.5 0 a6.25 6.25 0 1 0 -12.5 0z" fill="url(#SvgjsLinearGradient1817)"></path><path d="M1337.5 212.5L1312.5 237.5L1287.5 237.5M1062.5 212.5L1037.5 212.5L1012.5 212.5L987.5 212.5L962.5 212.5M1362.5 237.5L1337.5 237.5M1462.5 237.5L1437.5 237.5L1412.5 237.5L1387.5 237.5L1362.5 237.5L1337.5 212.5L1312.5 212.5L1287.5 212.5L1262.5 212.5L1237.5 212.5L1212.5 212.5L1187.5 212.5L1162.5 212.5L1137.5 212.5L1112.5 212.5L1087.5 212.5L1062.5 212.5L1037.5 187.5L1012.5 187.5L987.5 187.5" stroke="url(#SvgjsLinearGradient1817)" stroke-width="4.17"></path><path d="M981.25 187.5 a6.25 6.25 0 1 0 12.5 0 a6.25 6.25 0 1 0 -12.5 0zM1281.25 237.5 a6.25 6.25 0 1 0 12.5 0 a6.25 6.25 0 1 0 -12.5 0zM956.25 212.5 a6.25 6.25 0 1 0 12.5 0 a6.25 6.25 0 1 0 -12.5 0zM1331.25 237.5 a6.25 6.25 0 1 0 12.5 0 a6.25 6.25 0 1 0 -12.5 0z" fill="url(#SvgjsLinearGradient1817)"></path><path d="M1462.5 362.5L1437.5 362.5L1412.5 362.5L1387.5 362.5L1362.5 362.5" stroke="url(#SvgjsLinearGradient1817)" stroke-width="4.17"></path><path d="M1356.25 362.5 a6.25 6.25 0 1 0 12.5 0 a6.25 6.25 0 1 0 -12.5 0z" fill="url(#SvgjsLinearGradient1817)"></path><path d="M1012.5 162.5L987.5 137.5L962.5 137.5L937.5 112.5L912.5 112.5M1237.5 187.5L1212.5 162.5L1187.5 162.5L1162.5 162.5M1287.5 187.5L1262.5 162.5L1237.5 162.5L1212.5 137.5L1187.5 137.5L1162.5 137.5L1137.5 137.5L1112.5 137.5L1087.5 137.5L1062.5 137.5M1037.5 162.5L1012.5 137.5M1312.5 187.5L1287.5 162.5L1262.5 137.5L1237.5 137.5M937.5 162.5L912.5 137.5M1462.5 212.5L1437.5 212.5L1412.5 212.5L1387.5 212.5L1362.5 212.5L1337.5 187.5L1312.5 187.5L1287.5 187.5L1262.5 187.5L1237.5 187.5L1212.5 187.5L1187.5 187.5L1162.5 187.5L1137.5 187.5L1112.5 187.5L1087.5 187.5L1062.5 187.5L1037.5 162.5L1012.5 162.5L987.5 162.5L962.5 162.5L937.5 162.5L912.5 162.5L887.5 162.5L862.5 162.5L837.5 162.5" stroke="url(#SvgjsLinearGradient1817)" stroke-width="4.17"></path><path d="M831.25 162.5 a6.25 6.25 0 1 0 12.5 0 a6.25 6.25 0 1 0 -12.5 0zM906.25 112.5 a6.25 6.25 0 1 0 12.5 0 a6.25 6.25 0 1 0 -12.5 0zM1156.25 162.5 a6.25 6.25 0 1 0 12.5 0 a6.25 6.25 0 1 0 -12.5 0zM1056.25 137.5 a6.25 6.25 0 1 0 12.5 0 a6.25 6.25 0 1 0 -12.5 0zM1006.25 137.5 a6.25 6.25 0 1 0 12.5 0 a6.25 6.25 0 1 0 -12.5 0zM1231.25 137.5 a6.25 6.25 0 1 0 12.5 0 a6.25 6.25 0 1 0 -12.5 0zM906.25 137.5 a6.25 6.25 0 1 0 12.5 0 a6.25 6.25 0 1 0 -12.5 0z" fill="url(#SvgjsLinearGradient1817)"></path><path d="M962.5 412.5L937.5 437.5L912.5 437.5L887.5 437.5L862.5 437.5L837.5 437.5L812.5 437.5L787.5 412.5L762.5 412.5M1112.5 412.5L1087.5 437.5L1062.5 437.5L1037.5 437.5L1012.5 437.5M937.5 412.5L912.5 387.5L887.5 387.5L862.5 387.5L837.5 387.5L812.5 412.5M1137.5 412.5L1112.5 387.5L1087.5 387.5L1062.5 387.5M1262.5 387.5L1237.5 362.5L1212.5 362.5L1187.5 362.5L1162.5 362.5M1212.5 387.5L1187.5 387.5L1162.5 387.5M1462.5 387.5L1437.5 387.5L1412.5 387.5L1387.5 387.5L1362.5 387.5L1337.5 387.5L1312.5 387.5L1287.5 387.5L1262.5 387.5L1237.5 387.5L1212.5 387.5L1187.5 412.5L1162.5 412.5L1137.5 412.5L1112.5 412.5L1087.5 412.5L1062.5 412.5L1037.5 412.5L1012.5 412.5L987.5 412.5L962.5 412.5L937.5 412.5L912.5 412.5L887.5 412.5" stroke="url(#SvgjsLinearGradient1817)" stroke-width="4.17"></path><path d="M881.25 412.5 a6.25 6.25 0 1 0 12.5 0 a6.25 6.25 0 1 0 -12.5 0zM756.25 412.5 a6.25 6.25 0 1 0 12.5 0 a6.25 6.25 0 1 0 -12.5 0zM1006.25 437.5 a6.25 6.25 0 1 0 12.5 0 a6.25 6.25 0 1 0 -12.5 0zM806.25 412.5 a6.25 6.25 0 1 0 12.5 0 a6.25 6.25 0 1 0 -12.5 0zM1056.25 387.5 a6.25 6.25 0 1 0 12.5 0 a6.25 6.25 0 1 0 -12.5 0zM1156.25 362.5 a6.25 6.25 0 1 0 12.5 0 a6.25 6.25 0 1 0 -12.5 0zM1156.25 387.5 a6.25 6.25 0 1 0 12.5 0 a6.25 6.25 0 1 0 -12.5 0z" fill="url(#SvgjsLinearGradient1817)"></path><path d="M1137.5 112.5L1112.5 87.5L1087.5 87.5L1062.5 87.5L1037.5 87.5M1362.5 112.5L1337.5 87.5L1312.5 87.5M1287.5 112.5L1262.5 87.5M1312.5 112.5L1287.5 137.5M1462.5 187.5L1437.5 162.5L1412.5 162.5L1387.5 137.5L1362.5 112.5L1337.5 112.5L1312.5 112.5L1287.5 112.5L1262.5 112.5L1237.5 112.5L1212.5 112.5L1187.5 112.5L1162.5 112.5L1137.5 112.5L1112.5 112.5L1087.5 112.5L1062.5 112.5L1037.5 112.5" stroke="url(#SvgjsLinearGradient1817)" stroke-width="4.17"></path><path d="M1031.25 112.5 a6.25 6.25 0 1 0 12.5 0 a6.25 6.25 0 1 0 -12.5 0zM1031.25 87.5 a6.25 6.25 0 1 0 12.5 0 a6.25 6.25 0 1 0 -12.5 0zM1306.25 87.5 a6.25 6.25 0 1 0 12.5 0 a6.25 6.25 0 1 0 -12.5 0zM1256.25 87.5 a6.25 6.25 0 1 0 12.5 0 a6.25 6.25 0 1 0 -12.5 0zM1281.25 137.5 a6.25 6.25 0 1 0 12.5 0 a6.25 6.25 0 1 0 -12.5 0z" fill="url(#SvgjsLinearGradient1817)"></path><path d="M1412.5 412.5L1387.5 437.5M1237.5 412.5L1212.5 437.5M1312.5 412.5L1287.5 437.5M1462.5 412.5L1437.5 412.5L1412.5 412.5L1387.5 412.5L1362.5 412.5L1337.5 412.5L1312.5 412.5L1287.5 412.5L1262.5 412.5L1237.5 412.5L1212.5 412.5" stroke="url(#SvgjsLinearGradient1817)" stroke-width="4.17"></path><path d="M1206.25 412.5 a6.25 6.25 0 1 0 12.5 0 a6.25 6.25 0 1 0 -12.5 0zM1381.25 437.5 a6.25 6.25 0 1 0 12.5 0 a6.25 6.25 0 1 0 -12.5 0zM1206.25 437.5 a6.25 6.25 0 1 0 12.5 0 a6.25 6.25 0 1 0 -12.5 0zM1281.25 437.5 a6.25 6.25 0 1 0 12.5 0 a6.25 6.25 0 1 0 -12.5 0z" fill="url(#SvgjsLinearGradient1817)"></path></g></g><defs><mask id="SvgjsMask1815"><rect width="1440" height="578" fill="#ffffff"></rect></mask><linearGradient x1="14.97%" y1="-37.28%" x2="85.03%" y2="137.28%" gradientUnits="userSpaceOnUse" id="SvgjsLinearGradient1816"><stop stop-color="#0e2a47" offset="0"></stop><stop stop-color="rgba(56, 2, 73, 1)" offset="1"></stop></linearGradient><linearGradient x1="403.20000000000005" y1="289" x2="1440" y2="289" gradientUnits="userSpaceOnUse" id="SvgjsLinearGradient1817"><stop stop-color="#3a7cc3" offset="0"></stop><stop stop-color="rgba(221, 17, 156, 1)" offset="1"></stop></linearGradient><mask id="SvgjsMask1818"><rect width="1440" height="578" fill="white"></rect><path d="M634.37 237.5 a3.13 3.13 0 1 0 6.26 0 a3.13 3.13 0 1 0 -6.26 0zM1209.37 287.5 a3.13 3.13 0 1 0 6.26 0 a3.13 3.13 0 1 0 -6.26 0zM884.37 262.5 a3.13 3.13 0 1 0 6.26 0 a3.13 3.13 0 1 0 -6.26 0zM734.37 262.5 a3.13 3.13 0 1 0 6.26 0 a3.13 3.13 0 1 0 -6.26 0zM684.37 162.5 a3.13 3.13 0 1 0 6.26 0 a3.13 3.13 0 1 0 -6.26 0zM1159.37 262.5 a3.13 3.13 0 1 0 6.26 0 a3.13 3.13 0 1 0 -6.26 0zM909.37 287.5 a3.13 3.13 0 1 0 6.26 0 a3.13 3.13 0 1 0 -6.26 0zM709.37 137.5 a3.13 3.13 0 1 0 6.26 0 a3.13 3.13 0 1 0 -6.26 0zM1234.37 237.5 a3.13 3.13 0 1 0 6.26 0 a3.13 3.13 0 1 0 -6.26 0z" fill="black"></path><path d="M809.37 337.5 a3.13 3.13 0 1 0 6.26 0 a3.13 3.13 0 1 0 -6.26 0zM759.37 312.5 a3.13 3.13 0 1 0 6.26 0 a3.13 3.13 0 1 0 -6.26 0zM884.37 312.5 a3.13 3.13 0 1 0 6.26 0 a3.13 3.13 0 1 0 -6.26 0zM809.37 362.5 a3.13 3.13 0 1 0 6.26 0 a3.13 3.13 0 1 0 -6.26 0zM984.37 362.5 a3.13 3.13 0 1 0 6.26 0 a3.13 3.13 0 1 0 -6.26 0zM809.37 387.5 a3.13 3.13 0 1 0 6.26 0 a3.13 3.13 0 1 0 -6.26 0zM1159.37 337.5 a3.13 3.13 0 1 0 6.26 0 a3.13 3.13 0 1 0 -6.26 0z" fill="black"></path><path d="M1284.37 337.5 a3.13 3.13 0 1 0 6.26 0 a3.13 3.13 0 1 0 -6.26 0zM1284.37 362.5 a3.13 3.13 0 1 0 6.26 0 a3.13 3.13 0 1 0 -6.26 0z" fill="black"></path><path d="M984.37 187.5 a3.13 3.13 0 1 0 6.26 0 a3.13 3.13 0 1 0 -6.26 0zM1284.37 237.5 a3.13 3.13 0 1 0 6.26 0 a3.13 3.13 0 1 0 -6.26 0zM959.37 212.5 a3.13 3.13 0 1 0 6.26 0 a3.13 3.13 0 1 0 -6.26 0zM1334.37 237.5 a3.13 3.13 0 1 0 6.26 0 a3.13 3.13 0 1 0 -6.26 0z" fill="black"></path><path d="M1359.37 362.5 a3.13 3.13 0 1 0 6.26 0 a3.13 3.13 0 1 0 -6.26 0z" fill="black"></path><path d="M834.37 162.5 a3.13 3.13 0 1 0 6.26 0 a3.13 3.13 0 1 0 -6.26 0zM909.37 112.5 a3.13 3.13 0 1 0 6.26 0 a3.13 3.13 0 1 0 -6.26 0zM1159.37 162.5 a3.13 3.13 0 1 0 6.26 0 a3.13 3.13 0 1 0 -6.26 0zM1059.37 137.5 a3.13 3.13 0 1 0 6.26 0 a3.13 3.13 0 1 0 -6.26 0zM1009.37 137.5 a3.13 3.13 0 1 0 6.26 0 a3.13 3.13 0 1 0 -6.26 0zM1234.37 137.5 a3.13 3.13 0 1 0 6.26 0 a3.13 3.13 0 1 0 -6.26 0zM909.37 137.5 a3.13 3.13 0 1 0 6.26 0 a3.13 3.13 0 1 0 -6.26 0z" fill="black"></path><path d="M884.37 412.5 a3.13 3.13 0 1 0 6.26 0 a3.13 3.13 0 1 0 -6.26 0zM759.37 412.5 a3.13 3.13 0 1 0 6.26 0 a3.13 3.13 0 1 0 -6.26 0zM1009.37 437.5 a3.13 3.13 0 1 0 6.26 0 a3.13 3.13 0 1 0 -6.26 0zM809.37 412.5 a3.13 3.13 0 1 0 6.26 0 a3.13 3.13 0 1 0 -6.26 0zM1059.37 387.5 a3.13 3.13 0 1 0 6.26 0 a3.13 3.13 0 1 0 -6.26 0zM1159.37 362.5 a3.13 3.13 0 1 0 6.26 0 a3.13 3.13 0 1 0 -6.26 0zM1159.37 387.5 a3.13 3.13 0 1 0 6.26 0 a3.13 3.13 0 1 0 -6.26 0z" fill="black"></path><path d="M1034.37 112.5 a3.13 3.13 0 1 0 6.26 0 a3.13 3.13 0 1 0 -6.26 0zM1034.37 87.5 a3.13 3.13 0 1 0 6.26 0 a3.13 3.13 0 1 0 -6.26 0zM1309.37 87.5 a3.13 3.13 0 1 0 6.26 0 a3.13 3.13 0 1 0 -6.26 0zM1259.37 87.5 a3.13 3.13 0 1 0 6.26 0 a3.13 3.13 0 1 0 -6.26 0zM1284.37 137.5 a3.13 3.13 0 1 0 6.26 0 a3.13 3.13 0 1 0 -6.26 0z" fill="black"></path><path d="M1209.37 412.5 a3.13 3.13 0 1 0 6.26 0 a3.13 3.13 0 1 0 -6.26 0zM1384.37 437.5 a3.13 3.13 0 1 0 6.26 0 a3.13 3.13 0 1 0 -6.26 0zM1209.37 437.5 a3.13 3.13 0 1 0 6.26 0 a3.13 3.13 0 1 0 -6.26 0zM1284.37 437.5 a3.13 3.13 0 1 0 6.26 0 a3.13 3.13 0 1 0 -6.26 0z" fill="black"></path></mask></defs></svg>